0.06m3min_grf.mot
version=1
nRows=20
nColumns 19
inDegrees=yes
endheader
time	1_ground_force_vx	1_ground_force_vy	1_ground_force_vz	1_ground_force_px	1_ground_force_py	1_ground_force_pz	1_ground_torque_x	1_ground_torque_y	1_ground_torque_z	2_ground_force_vx	2_ground_force_vy	2_ground_force_vz	2_ground_force_px	2_ground_force_py	2_ground_force_pz	2_ground_torque_x	2_ground_torque_y	2_ground_torque_z
            2.502500	            0.688201	           -1.802917	            0.082276	           -0.233013	            0.005581	           -0.255695	           -0.040517	            0.074742	           -0.082983	           -3.066078	            6.414446	            5.561808	           -0.232311	            0.006130	           -0.833667	           -1.347626	           -1.283552	            0.712330
            2.503000	           -0.090464	           -1.083381	            0.408293	           -0.233013	            0.005581	           -0.255695	           -0.017012	            0.037104	           -0.041266	           -2.827923	            5.311072	            5.370054	           -0.232311	            0.006130	           -0.833667	           -1.478928	           -1.331493	            0.768768
            2.503500	           -0.638548	           -0.366160	            1.284013	           -0.233013	            0.005581	           -0.255695	            0.001838	           -0.065114	            0.009959	           -2.594421	            5.496735	            5.182899	           -0.232311	            0.006130	           -0.833667	           -1.291176	           -1.311640	            0.693354
            2.504000	           -0.730801	           -1.626661	            0.957838	           -0.233013	            0.005581	           -0.255695	           -0.021296	           -0.148202	           -0.031800	           -2.362350	            6.051532	            4.762418	           -0.232311	            0.006130	           -0.833667	           -1.328883	           -1.273965	            0.693505
            2.504500	           -0.227765	           -1.083801	            0.500346	           -0.233013	            0.005581	           -0.255695	           -0.039742	           -0.036827	           -0.066189	           -2.310910	            4.763165	            4.617014	           -0.232311	            0.006130	           -0.833667	           -1.310540	           -1.160196	            0.618501
            2.505000	            0.412913	           -0.541111	            0.088369	           -0.233013	            0.005581	           -0.255695	            0.052555	            0.046823	           -0.076308	           -1.981172	            4.213578	            4.145622	           -0.232311	            0.006130	           -0.833667	           -1.235604	           -1.094024	            0.694106
            2.505500	            1.008126	           -1.440751	           -0.283822	           -0.233013	            0.005581	           -0.255695	           -0.025083	            0.130340	           -0.069112	           -1.465406	            4.033299	            3.581609	           -0.232311	            0.006130	           -0.833667	           -1.179504	           -1.027518	            0.656618
            2.506000	            1.008159	           -1.621017	           -0.284595	           -0.233013	            0.005581	           -0.255695	            0.069089	            0.083819	            0.005653	           -0.764048	            4.404635	            3.441840	           -0.232311	            0.006130	           -0.833667	           -1.104668	           -0.951356	            0.581455
            2.506500	            0.322434	           -2.165092	            0.448487	           -0.233013	            0.005581	           -0.255695	            0.000687	            0.018570	            0.032636	           -0.524461	            2.932127	            3.483412	           -0.232311	            0.006130	           -0.833667	           -1.123531	           -0.923267	            0.638115
            2.507000	           -0.180963	           -0.725030	            0.914482	           -0.233013	            0.005581	           -0.255695	           -0.076412	           -0.147558	           -0.102227	           -0.527805	            3.853036	            3.439769	           -0.232311	            0.006130	           -0.833667	           -1.104574	           -0.979647	            0.562503
            2.507500	           -0.455452	           -0.726066	            1.144444	           -0.233013	            0.005581	           -0.255695	           -0.010906	           -0.092606	           -0.019892	           -1.183518	            3.849161	            3.862401	           -0.232311	            0.006130	           -0.833667	           -1.010459	           -1.035889	            0.524561
            2.508000	           -0.364970	           -0.363551	            0.687203	           -0.233013	            0.005581	           -0.255695	            0.121052	           -0.064825	           -0.016203	           -1.603194	            3.295361	            3.813681	           -0.232311	            0.006130	           -0.833667	           -0.973052	           -0.979374	            0.618998
            2.508500	            0.092420	           -0.902294	            0.225187	           -0.233013	            0.005581	           -0.255695	            0.028435	            0.083085	            0.041823	           -1.698929	            3.847803	            3.721836	           -0.232311	            0.006130	           -0.833667	           -1.029450	           -0.970057	            0.600206
            2.509000	            0.778635	           -1.800737	           -0.422367	           -0.233013	            0.005581	           -0.255695	            0.075236	            0.064901	            0.070982	           -1.885061	            3.479332	            3.579817	           -0.232311	            0.006130	           -0.833667	           -0.879058	           -0.988756	            0.694325
            2.509500	            0.732969	           -0.900007	           -0.280821	           -0.233013	            0.005581	           -0.255695	            0.087458	            0.102022	            0.031528	           -1.226483	            2.744939	            3.623838	           -0.232311	            0.006130	           -0.833667	           -0.916755	           -0.969516	            0.562457
            2.510000	            0.596057	           -0.540682	           -0.003798	           -0.233013	            0.005581	           -0.255695	           -0.056174	           -0.063957	           -0.087493	           -0.992981	            2.930603	            3.436683	           -0.232311	            0.006130	           -0.833667	           -0.991880	           -0.969921	            0.600190
            2.510500	           -0.089682	           -1.625358	            0.681110	           -0.233013	            0.005581	           -0.255695	            0.084442	           -0.064867	            0.033257	           -1.089298	            3.666523	            3.533207	           -0.232311	            0.006130	           -0.833667	           -0.935379	           -1.007596	            0.618881
            2.511000	           -0.317857	           -1.086571	            1.142556	           -0.233013	            0.005581	           -0.255695	            0.026980	           -0.101940	            0.023448	           -0.946007	            2.929768	            3.718232	           -0.232311	            0.006130	           -0.833667	           -0.728611	           -1.053777	            0.524374
            2.511500	           -0.317953	           -1.807241	            1.047753	           -0.233013	            0.005581	           -0.255695	            0.087705	           -0.037309	            0.042398	           -1.363813	            1.824527	            3.385972	           -0.232311	            0.006130	           -0.833667	           -0.822445	           -1.064040	            0.656331
            2.512000	            0.185115	           -1.444646	            0.589488	           -0.233013	            0.005581	           -0.255695	           -0.118444	            0.101921	           -0.028995	           -1.741167	            2.558930	            3.623400	           -0.232311	            0.006130	           -0.833667	           -0.916705	           -0.969919	            0.675559
